<mxfile host="65bd71144e">
    <diagram name="ページ1" id="mm7XyiIau-mtg0X2S4c-">
        <mxGraphModel dx="1513" dy="466" grid="1" gridSize="10" guides="1" tooltips="1" connect="1" arrows="1" fold="1" page="1" pageScale="1" pageWidth="827" pageHeight="1169" math="0" shadow="0">
            <root>
                <mxCell id="0"/>
                <mxCell id="1" parent="0"/>
                <mxCell id="Hv4fnxaPhoupZEU2Rj9M-1" value="" style="shape=image;verticalLabelPosition=bottom;labelBackgroundColor=default;verticalAlign=top;aspect=fixed;imageAspect=0;image=data:image/png,iVBORw0KGgoAAAANSUhEUgAAAlwAAABMCAIAAAA3N/5VAAAAAXNSR0IArs4c6QAAIABJREFUeAHtfflTW1ea9vcPzI9Tleqqr1I1neqarh6Xk0p1xqlx7E4mmU6crrQdO053yp2QBLwlJninQRjMJhBiXwQSQkILsiUEQoAkwCAWsQkhCxAgEEKA4CIBsiQkJBCy7sfH6bl9IxYLDJjY5/ygeu+5Z3nPc67uc8/2vv8HhQEiABGACEAEIAIQgXUE/g/EASIAEYAIQAQgAhABgAAkRfgkQAQgAhABiABE4B8IQFLc/aPgcrkMBkOQ+VUqVWlpKW09MJnM9vb2IDPCZBABiABEACJwYAhAUtw91C6Xq7Oz85n5p6amaDRaX1+fAxf0ej2NRhscHHxmdpgAIgARgAhABA4MAUiKu4c6GFLU6XQcDgfHhj8TBQJBV1fX7jWAOSECEAGIAERgTxGApLh7OIMhRTqd/jMa3HDBYrFWVlZ2rwTMCRGACEAEIAJ7hwAkxd1j+UxSLC8vX1xc3MCDgREsFmv3SsCcEAGIAEQAIrB3CEBS3D2WzyTF4uLiQALc7JrJZO5eCZgTIgARgAhABPYOAUiKu8fS5XIpFIrVrYNAINiMBAPjmpqaHA7H7vWAOSECEAGIAERgjxCApLh7IF0uV1lZWfMW4dGjR1KpNJAAN7vu6emZnp7evR4wJ0QAIgARgAjsEQKQFHcP5DOnT/l8/mYkGBhXX1/vdDp3rwfMuacIWK1Wi8Wyp0X+o7D9K3k/tIVlQgReTQQgKe6+359JijQaLZAAN7suKSnZvRIw5x4hYLPZ7t69GxYWdvr06VOnToWFhYWHhxuNRi6XexIXjh49WldXNzMzk5qaGh8ff+3atcuXL8evh+Hh4aSkpJMnT544ceLIkSMnTpw4efJkeHi4yWT68ssvT548+eabbx45cuTkyZOffvqpTqdbWFgA8aB4ELlHrYHFQAQgArtEAJLiLoFDUfSZpCgWi+fm5jbjwZ/FPXjwYKdKqNXqnJycneaC6bdBAEEQFotlsViQ9WA2m+vq6lQqFZbF7/cLBIKUlBSv12uz2To6Orq6ulJSUuLi4uRyeX9/v9FonJ6eFggEVCr1b3/7m2A9DA0NoSja1tYWHx9/6dKlkJCQ+Ph4JpMJz+FgwEIBInCoEICkuPvueCYpoij6zA2oOxomLi0tNTY2fvvtt8eOHcvOzt696jDnZgi43W6JRALITCQSWa1WfKrIyMjq6mq/34+iKIIgXC5XLBarVCq5XE6hUIDc1NRUXl4eHh6u1+uJRKJCoWCxWFarVSQSAUKNi4sD5U9PTxcXF4eth2PHjoWEhISFhZFIJI/Hg68UyhABiMABIwBJcfeAB0OKFoulpKTkZwND3AWLxdLpdEFqkJCQ8Mknn/zmN7/5j//4DzKZ3NHR0d3drVQqe3t7Hz9+3NfXp9VqBwcHh4eHR0dHx8bGxsfHJyYmpqamZmZmZmdnBwYGFhYWbDbb4uKi2+1eWVnx+XxBVv0qJNPpdJ9++unv18M777xz7NixkydPKhQKrO0UCgVb+gWkmJ+fD0aKkZGRGEHK5fLIyEiBQBAZGTk6OsrlclEU9fv9crk8JSUlMzPTbrcLBIL5+XkURRsaGqampigUyuzsbHNzM2BcrEYoHEIEjEbjIdQKqrSHCEBS3D2YwZAiiqIej4dOpzc0NODY0KFQKGg02tzcXPDVx8fHf/DBB6+//vrRo0fT09Orq6tFIlFFRUV5eTmfz3/w4AGXy+VwOCwWi8Fg0Ol0KpVaVFREoVDy8vJycnLIZHJ6ejqJRCISiQkJCXFxcTExMVFRUTExMXFxcYmJiUQikUQiZWRkZGVl5eXlFRYWUqnUkpKS0tJSDofD4/EEAoFQKCwpKamtrZVKpQ0NDU1NTS0tLQqFoqurq6enR61W9/f3a7VanU6n1+vHx8cBJZvN5vn5eZvN5nA4lpaWlpeXV1dXDycBsFgsMPjDT5yCPtpIivfu3QMLkCEhIXhSvHr1anx8/NWrVwEpdnR0fPXVV5cuXUIQRC6Xf/zxxyMjIyiKGo3GxMTE1dVVUHJpaWlbW1vwzwNMefAI9Pb2/s///E9/f//BVw1rPDAEICnuHmqXyxX8UYqZmRmhUMhYD3w+P3j3Gnj97Ha7UCj86KOP3nnnndraWvytXcurq6vLy8tLS0sOh8Nms83Pz5vN5pmZmcnJyfHxcb1er9PptFptf3+/Wq1WKpUikUihULS0tDQ1NTU0NEil0pqamqqqKqFQKBAIeDweh8MpLS0FrAwoOSsrKyMjg0QiJScnJyYmAj6Oi4u7d+9eYmJiampqVlZWfn4+jUYrLS0tKysTCoVisVgmkzU1NbW1tSmVysePH2u1Wr1ePzExgSDIwsKCw+HweDxPnz7ddcM3Zuzr60tKSvJ6vXK5XKVSGQyGhw8fYskCSPHu3btgIhT8JiUlqVSq+vr6uLi40NBQgUAQGhqanZ1No9HASDE3N5e0HohEYmlp6fLycmJi4sTEBIqioOSFhYXk5GS41ogBftiEurq6//qv/woLCztsikF99hYBSIp7i+dBlLayssLlckkk0kFUtp91eL3epaUlm81msVimp6cNBoNOp+vv71epVJ2dnc3NzQ0NDRKJpLKyks/nczickpKSoqKinJyc9PR0IpF4//59AoEQExNDIpFSU1MzMzPz8/OpVCqTySwrKysvLxeLxVKptLGxsa2trbu7W61Wa7Xa0dFRwKzz8/OAWVdXV1EUValUPB7P7XajKDo/P1+5HsAk59jY2LVr1+h0OkiJoqjNZqurqwNbcsBve3u70WgcGhrq6enB4kdGRsAErEwmk0qlYPbV7/d3dXWp1WoURd1uN5FIxJe8n3jDsnePQE5Ozn/+53/+5je/wc+o7744mHM/EXjOb2VIivvZObDs/UfA6/XOz8/b7XbArOPj4zqdbmBgoLe3t7Ozs6Wl5dGjRxKJRCQSAWZlMBhFRUW5ubkZGRlEIjE+Pj4lJSU2NpZIJGZkZOTn5xcXF3M4HIFAAEarzc3NnZ2darV6cHDQYDBMT0/Pz88vLi56vd79bxys4VAgIBKJjh8//qtf/erIkSNkMrm4uFggEBwKzaASOATUanVxcTGbza6urq6srCwpKWGz2YuLi7gkQYmQFIOCCSZ6uRHwer2Li4vz8/NgwDo4OKhWq8FoVSaTVVVV8fl8NptNo9Hy8vLAODU2NpZAICQkJIBJ0aKiIiaTyePxKioqJBJJY2OjQqHo6ekZGBgYHR2dnJw0m812u33Pp3xf7n554a17+vQpjUbT6/Vms/nevXtvvPFGamoq2BxQUlIyPDz8wjWECgAEgOd2/L4NIJeVlTU0NOwIJUiKwcLl8/n2dm+I1+s1m83YVBsQLBaLx+PZNF4ikQwODsIt+8F22P6n8/l8S0tLT548AYcUR0ZG+vv7lUplW1vbo0ePamtrhUJhWVkZg8EoLCzMysoC5/2jo6Pj4uKIRCKY7wXftgUFBdXV1Q0NDW1tbYBKx8bGpqenFxYWXC4X3Ce8/525eQ1UKhX/ni0sLDxx4oRWqwWRXC4XbkbdHLiDjWUwGHa7Hd9TeLm+vr6xsTF4jSAp/gOrJ0+ebI9aWVkZj8cDaZxOJ57MsJ3625cQcBcjRY1GEx4evpEU5XL5/fv3sXi5XM5gMGJiYoqKiurr6w0Gw96SdIB68HL/EFhZWXE4HHNzcyaTyWAwDA4O1tfXd3R0NDU1SSSSiooKLpdLp9Pz8/PT09OTkpJiYmLABG9WVlZhYSGTyXzw4IFIJJLJZM3Nzd3d3eXl5SMjI5OTkxaLxeFwwKndPem7Td2DB9huBBup9qS6Q1WI2+0Gu8BQFB0dHcVW091ud19f30ZVgQlDkMzv97tcLnwaq9Ua/J5EfMZg5IaGhoGBATwLbpRZLFbwb0tIiv+A/eOPP/7oo49CQ0P//ve/Z2ZmJiQkoChqMpm++eYbo9HodruvX7+OmcQcGhrC7zwEVkuC6T98GovFEh8ff/fu3XfeeedXv/rVsWPHqqqqGAyGx+PJysq6d+/el19++d13392+fTs2NlYmk4G8fr/fYDDU19cXFhbGxMQwmcyWlpb9e+DwCkP5BSKwsrJit9vNZvPExIROp9NoNF1dXc3NzVKptLKykkwmM5lMMB4lEomxsbExMTFJSUnp6en5+fl0Op3L5QqFQolE0tTU1NHRoVarh4aGxsfHZ2dnbevhBTbtcFbt9/t5PN7G12tAzODgoFKpPJxNCNAKvLX6+vrq6+u//fbb3NzcK1euzM/PSySSmpqanp6e+Pj4v/zlLzExMW1tbQiCMBgMPp8fHx9/6tQpAoHAZDJHR0dDQ0OPHDmSnp4OzE2cO3dOpVKx2eyamhqJRJKamjo0NDQ3N0ehUBAEOXv27CeffDI+Pp6UlPTDDz/o9foAlfbkMkhrmnw+P8jqICn+Ayiz2ZyZmfnOO++89tprr7/++sWLF5eXl1EUtVqt36+H4uLiZ2KK2c8MCQn57LPP7HY7iqIej0cqleJJVCAQgD2KBAIhMjJSJpOFh4eDtSuwOz86Onp0dJRCoej1+uzsbHBUfGPtHo9ncHCwuro6KysrKSmJx+N1d3eDDZMbE8OYVwqB1dVVl8u1sLAwPT09Njam1Wp7enra2toaGhqqq6sFAgGbzaZSqTk5OSQSKT4+Pjo6OiEhgUwm5+fnl5SUlJWVVVZWymSylpYWpVI5MDAwNjY2MzNjtVrBBt2XHszm5maz2RxAgZte/iL8oa6ursrlcoFAUF9fT6fTT5482dfXR6FQgGHCtRNE4MMaO3dEIpG++eab7OxsjBSFQuH09DSVSj1z5gyPx0tPTx8dHU1OTtZoNH19fVQqNS8vr6Ojg8vlgncXgiA5OTlpaWk3b96USqUGg+Gnn35qbW3d2yfHZrM9evRo034JiAx+TA9J8f/vv29ubs7Ly0tLS/vss89+/etfp6am4sfaXV1dR48eTUhICH5Wan5+nkAgYJMJCwsL+OlWBEHABCyBQEhOTpbL5bsjRfzjZbfb1Wp1eXk5iUQik8kPHz7UaDS72HmFL3OnMjAKutNcm6bHpmsC7kJHEwGA7NWl3+9fWloC01x6vX5gYECpVGIj0bKyMjqdnpeXRyaT1/4IUVFRCQkJaWlpeXl52dnZgEGlUmlzczNgUL1ePz09DRgU/1faK20PoJyAadKANyz+Mvi37QGovU0VYKQol8szMjJkMll6enpiYiIwbSgSierq6igUSnZ2tl6vX1hYSExMpNPpTCYzPj7+9u3b9+/fz8rKMpvNRCKxqakpNzf39u3b4EN/enqaxWJp1kNkZCSeFJOSkuh0OoIg6enpoaGh7e3twb9Ct2kI/pZKpZqcnMR3x1Yym83GZ9xG3iUp2my2wcFBBEG2KfqQ37Lb7QqFoqioiEgkisVig8EwMDDw1ltvUSgUvOYdHR1//etfnzx5Ulpa+tNPP3m9Xo/HE8BwZrM5oLMNBkNSUhK+nI0ygiCE9XDt2rXPPvvs2rVrYrEYGylqNJp33333+PHjP/zww1YjxY1lghiz2QwO0cfHx+fm5kokkuHh4QANt8q7VXzAMurCwgL2snv06JFAIPD5fOAQodPp7Orqwo+MKysrsfGr0+mMjo4OWIXt7+/ncDhY1T6fj8Vi8Xg8JpN5/fr1wsLC1NTUtXU1cJoQnKw/d+5cWFjYRx99JBaLsYxQODAE3G43YNCB9QAYVCaTVVZWbsOgdDq9rKysoqJCKpXm5+cDBjUYDAiC2Gy2Q2W44OHDh1u9XgPiqVTqgcH+PBUBUmxvb7fZbCkpKRUVFT6fb1NSdLlcY2NjXC63vr4+JSUFmO2tr6/X6XTHjx9//fXX//KXv1y6dAlMyA8NDeXm5n61Hq5cuYInRS6Xy2azr169+uabb/7bv/3bp+vOYZ6nCRvzKpXKmZmZgB7Z9BIYXNxYwsaYHZPi2NgYjUarq6vT6/Xt7e3FxcW/rNOsLperu7ubTqfHx8cLhUJgcAvgcvXq1bUjaxhGy8vLt27dunbtGlg09vv9Wq3W7/cPDQ2Bc2zYe7+8vBxBEJfL9eWXX/7f9fCv//qv//Iv//Lll18GLDhjhQOj0hcuXMAKATNaCQkJa/Rz8eJFYBiFzWaHhoZSqdRdf41OTk7K5fK14+HR0dFUKrWxsXF3++VoNBqVSgXastnsixcvAmKz2+2nTp06duzYiRMn/vjHPwLys9ls2HfD8PDwpUuXFhYW+vv733vvPcyt0rFjx6RSKQBEpVIFfIv4/X69Xp+YmKhQKDIyMthsdn19fUNDA/C+lJ6eLpfLURQVrwc8qlA+hAgABp2ZmRkbG8PGoGQyubKyksvlFhcX566b+wGmjpKTk7OysoqKilgslkAgqK2tbWpq6uzsNJvNB9m0urq6Td+tGyMZDMZBKrbrumg0WnZ29p07d+h0OpvNVqlUZWVlMzMzZ8+ePXfuHOV/A/hfgw/xAFK0Wq0MBuPMmTNVVVXATFVkZKTb7c7MzDy2HsLCwiorK8fGxsCaIuhQkUjE4/FSUlKKi4uf89N8Y9sRBOns7NzYKRtjgln/AuXvjBTHx8c37sgC5rg2qnuoYlZWVnp7e1ksVkxMzMOHD7VabTDquVwubDwUTPodpbHZbBwOByMPBEEmJiZkMpnH4+HxeMDqCriLGUbZUfkBiVdXV0dHR6VSaUFBQVxcHJvNVigUs7OzAcm2uuRyudjEADbac7lc169f7+npQVF0fHz85s2b+GlPsVjMYDB++umnx48fg0EenvkKCgowU58qler3v/89mUxeWFhAURSsf3R2do6Ojubn53d0dCQnJ4+Ojvr9fswwaVJSkkAguHPnDhwpbtVlv8R4n8+3uLhosVgmJiaGhoZ6e3sVCkVDQ0NVVZXD4TjIFtlsNrFYvPHdGhBjsVh2egzuIFuBr4vFYq395S9dupSTk8PlcjUaza1bt9RqNYVCqaioAFaRiUSiXq8H00IbR4rgU55AIDidzvz8/MzMzEuXLrlcLvByAFNfKIo6nU5Ailwud2JiIi0trbOzk0KhNK8HvEpbydXV1dsMJwJybeNxAd9ZLBYrIONWlzsjxa32+TAYjP0jj61UDyb+6dOn/f39YJzE4XA0Gg3+rR1MCS9lGpfLNTAwIBKJgFUXPp/f09Oz/aGUTUmxqakJDLX9fn9WVlbAKnp5eXlzc/PS0hLA0Gg0NjU1AdntdhMIBLARCfBlfn7+4ODgt99+m5GR4ff7JycnMzMzFxYWgAOm8PBwm802Ojp6+fLlDz/88M6dOxwOJyEhYXh42OOBvpZeyof0xTeKTqfj36qbyr+UYSKKogqFYmRkBNhjIhKJcXFxT548AQYLzWZzW1sbNms1NDQEPIYODw8bjcaFhYXo6Giwx95mswmFQuDkAJg2bG1t7ejoQBAkLS1NoVAgCHLjxg2xWAxK8Pv9TqczLS1t04Mcm/bx6urqpUuXTpw4weFwgvlqLy8vt1qtm/YOFllRURH8TMMOSNHhcMhkMqwavDA1NdXZ2blpC19UJJhAj42NZTKZPT09NpvtRWlyyOu1Wq1KpfLhw4fJycmZmZlVVVUDAwPYEiCm/KakCO76/X4+n5+ZmYn/MPJ6vQQCYdMH0efzkclkoVCIFb5x+tTpdJLJZLFYDGZ7oqOjxWKx3W7v6OiQy+U8Hk+j0VRVVWFjTawoKEAE9gqBxcXFtVVt/IsuQK6vr38hi0fm5wgDAwPPkdt8MNlNJtPt27d//etfnzx5kkQiPfNvHmBjIaCb9Hp98OcxUBTdASnqdLqRkZGA+rDLqqqqvXoWn6ccvV5fWVmZmJhIo9E6OzsPePvl82h+GPIiCNLW1sZisVJTUwsKCqRS6ejoKDCnAtbSgVPckJCQL774Aqw9TE1N3bhxIz8/H291xeFw3Lhxo7KyMqBRPp+vvr7+008/5fP5eAYNIEW/3y+VSs+ePfvjjz+C71O9Xs9gMFZXV1UqlUQiAaNMu91OIBACXAEH1AgvIQLPg8DIyMhWs3NCoXCvPNXsVMOs5wgkEuk5cmelpaUdTPaoqKh33333tddeO3r06K1bt7aHyOv10mi0TceLCoUi+C02oJYdkCKCIO3t7RgL4gWbzYbNjG2v/T7dNRqNNTU1KSkpFAqltbV1+5nAfdLhJSt2fHy8sbGRSqVGR0fT6fTm5ubJycmANgKSw9YasbvA/hl2iRdcLtfGxXav14tfQvB6vUqlElAgNqUjkUjGx8ejo6Obm5tHR0dBmSaT6bBNUeAbC+WXAAG/389isdhstlqtnp6eHhoaKi8vLy4uHh8ffwladziboNfr33///bfffvvvf/878CcTjJ4CgaCkpKS9vX1qampsbKy6uppGo3V1dQWTF59mB6SIomhxcTGeCzH54cOHL2RpZ3p6Ghy4ycnJaWpqwizO4FsI5edEwOv1Dg8PSySS3NzchIQEDodz8FsBn7MJMDtE4PkRGB8f7+np0el0z18ULGF7BEJDQ2/evBmMBRyv12v9eRgeHpbL5QqFAtiawN/cvlLs7s5IUb4eMC4EgtFo3NGMLVb3rgWz2dzY2JicnJyRkVFXVzczM7PromDGHSGwuLio0WgqKirIZDKJRCovL1er1dh+mR0VBRMfBgQWFxcPxkLNxMSEw+HAzwcchuZDHQ4nAsHsrwGae71eddAhyMbujBRRFJVKpWw2+8mTJ4ARKyoqHjx4EGRlz5nMarW2tLQUFBSkpqbW1ta2t7c/Z4Ew+/MgMD8/393dXVZWlpSUlJ2dXV1dDZ14PA+ee5vX7/cH2FECa8Aoivr9/tTUVIPBMDMzk5KSIhQKwQlubKZaIBA8evQIm+UOWPEFenI4nP7+fkxnYODwq6++OnLkyOnTp0+dOhUWFiaRSLAE4Ex3dnY2OGCKxUMBInDYENgxKaIo+vTp08bGRhKJVFVVdQCjBIfD0dHRQaVSk5KSRCLR2NjYYQMR6jM9Pd3S0gKceKSnpwMnHhCWF4iA0+mMjIzEeC4lJSUnJwfos2Zv6He/+92JEyeOHTsWFRWFoqjP57NYLNiR2aqqquTkZL/fX1RUBA5lv/nmmydPnvzkk0+wWRkKhaJSqfANJBAIV69ePX78+KVLl0JCQiIiIvr7+8EmcIFA8MMPP1AoFD6fv7ajOJix6QGfSsQ3BMqvOAK7IUUAWWtr676aZXK73UqlksFgxMXFlZeXQ3+ev4gn1e/3NzU1QSceL7yzwAFqTA1stDc0NHTlyhXwLftgPWBp1tiRQCCIRKKIiAiQAM98Lpfr5s2b2BY2Mpn84YcfisVibEAZERGRkpJy5syZlJSUuLi4pKQklUq1sLBw48YNk8lEIpHYbHbwFoiYTOaf//xnBoOhUqmC3GAMfE8uLy/X1dVxOBz89mZ8GzHZ4/GAI3dYDBhGP3nyBL+VGn93R7LT6XwhOy12pOQvJbFEIgkLCyORSGq1GvvUm56exuKbm5ux+LWH3GKxkEgkYIWgpqamqakJQRDQHcCoJGYhHTOGjkFx6EjR6/U+fvyYzWYTCAQejzcwMPDMhxtrDBQOFQIej0er1UInHi+kUzYlxeXlZT6fDxb27HZ7REQEMCEENFxdXU1MTJydncV4rqmpCTMKODAwkJWVhbWFQqF0dHSIxeJPPvmkt7cXOAcdGxu7fv26Xq8Hg05wONhkMvX09DCZzPPnzwdv5ePp06e5ublvvfXW7373u/fff//MmTNgtxc4FIT9AmNJKIq63e4rV650d3cjCMJisdra2txuN5fLPYkLx48fP3/+/OLiIjBfrNfrw8PDgbYYe60x2d27dwOOchmNxvDwcKzSsLAwUK/P50tLS6uurt70HQWMu2KIoSiKedHBiiKRSFjV+JSYHFA1fkYaS/PSCxiBSSSSlpYWGo3W2NgoFosrKyuB6w8wg4h1qNPp1Ov1wK2VSqUqLCwEm4cXFxcfP358+vTpd999Nz09/datW3q9fqNFtkNEigMDA+np6TExMaAB+zoMfekfo8PWQLvd3tvbW15enpqaSiaTKyoqDt6Jx2HDZF/12ZQUsRrdbvft27e7u7uxGBRFgbHZTd/vVqt1bVIU8zqLoih+EImiqNfrRRDk3r17bW1tk5OTP/zwg1KptNlsfr+/sbHx0qVLwK9QZGTkNgsuXq/XZDL19vZKpVImk5mamvrdd9+98cYbR44cCQ8PNxgMAZVi406/35+ZmQks/5WUlJw5cwYb0aIoury83NPT4/V6MzMzgckIYBQCG1jExsZiRo83JUXMHzgg+9LSUsy4oNfrTUhIyM/PB0gaDIa5uTkgbyRFzBAaSICZS8T3Al7euDCMN8SPT/nSy2AeXi6X22y2b775JiIioqamRqVSYfFOp3N+fh5zNhAdHf3555/zeDw8KVqt1vLy8qtXr54/f/7+/fs//vjjmtWtP/zhDwEeMYMixeHNApfL7e/v33gH+8wMsp90Op1QKIyPj6fT6SKRCO5PCxK3X24ys9nc2dnJ4XD20InHLxeNfdLc6XQCN7BgUHL69OmMjAywfNje3v7Xv/414EUwODh44cIFPO0Bxex2e15e3p/+9Ce86fyNpIii6MLCAovFOnfu3Ouvv/7jjz8CY0ZZWVk8Hs/n8wGLSCMjI19++SUo6unTp7Ozs2veYMBsJ/ggzsvL4/P5zc3Nw8PDg4OD77333gcffIAx0Kak6PP5srOzMYNKra2tqampeFSfPHly7do1EolUUFAAKB9jU5CMTqdj9kudTufnn3/+9ttv37hxY2pqCl8OJgdk9/l84KVnt9svX76MYZiRkXH06NHPPvusvb0dzMduRYoGg4HH42EkLRAIKioqwOwr3hUrm80+c+bMplaiMN1eVgFBEJVK1dfXl5iYKJPJBALBxYsXTSYTiNfpdMC4/BdffBESEiIUCmNiYggEgsViUavVqvWg0WjsdvvCwgKVSm1paamsrFz9SVsxAAAVEklEQVSzQHLz5s3IyEiRSITHLShSnN4sVFRUGI3GjXeCJMXx8XGxWEwkEouKihQKxTbfj3h1ofySIRDgxIPJZMIz0fvaxVarta6ubuNWl5WVlU3/uX6/f3FxcePwMcAIg9PpTExMLC4uHhoa8vl8LpcLTAYA8+7Z2dlEInFqakqr1dbU1JSVlWVnZ0dFRQHKbGxs1Gq1GzcNhISEXLhwwWAwYIBsSoput9tgMAANnU7n5cuXA8jMZDKB/URYOeCtBS7dbnd4eDjGNNjoTafTXbx4MeDTAWQJIEUQabfbL168iB98A20dDgeRSAQzz1uR4kZvdBaLZeO65ka+x1r00gsY+fl8vu7u7oiICDAiRxBEo9FYLJaqqioul4uNFAHUKpWKQCAAUrx8+TKCIBKJBEyfEgiE8+fPx8fHNzQ0tLS04AEMihTxGTB5dxttpqampFIpcE/a3Ny80cYmVj4UXikEfD7f6OhoRkYGcOIBLPpvtJXzSmHyi26s1WodHh5uaWnh8/m5ubkxMTHp6enABVhHR8fs7OzTp0+3byC2Xogl25QUsbtrDqquXbuGt6kLbvH5fIFAgCXDC16vNykpCZ8FI0V8sgA5gBSBXaePP/44gEEDtMVcTGClBVMXlliv14eEhODXgLFbr4IAXNdFRkaC9wNwYqXVarF47nrYSIqpqalg0vv69et4UkxPT4+OjiaTyV9//XXAkOzgSBEs1GdlZTU0NAR/NnNP+hv4vN2FvZ89qX37QrA1ZGDkc/vEm97dyu/HL9dJPebEIzMzk0gkPnz4sKenJ8gtiJtCBCP3GwGHwzE6OtrW1lZRUUGhUOLi4kgkUmlpqVQq7e3tnZ6e3uop3ZFiGRkZp0+fxnapnDx5Esys+ny+9vb2P/3pT42NjfgCvV5vYWHhjRs3Ng6Cl5eXS0pK3nvvvYBtMpuuKQbsdsFcW7tcLgKBcPTo0ZycnI2D703XFN9//31M/2+++ebzzz/Hzo/iNcfLer0+IiLi+++/f5X/AoD8QkNDo6Ojc3JyEARJTk7Oy8tjsVgajQbMjefl5YGdU8CfKxgjXrlyBcxLX7hwAXxkg53YTqczKioqPj7+7NmzAXx0cKTo9/sDpjXwHb+vcmRkpEajsdlsLpcrLS0NLFtaLJaysjJQb8Bc0PbKAMOeTqczKSlpcXHRarVik0sGgyE7OxufHewMBjFrXnYD/rTA9xjYBOV0Ov1+f0tLy5UrV8rKyrxer8fjKS4uttlsdrudTqdjPpjw5b/0TuqtVmtPT0+AEw+48Ix/Bg5edjqdBoNBLBaLRCIqlZqYmEgkEul0ek1NjVKpnJiY2H5H5Z4rbLVaZTLZpk/FNi5R7Xb7RrL0+/07OpKxTUvBouDzN9bhcLyyA0QMPczv1erqKo/HCwsLk8vlPp8PxJtMppqaGmxRtqurC7i4wtzVCQSC3Nxc0N0g0uPx5Ofn19bWzszMVFdX4yerD44UseYdvEAgEMA3wpMnT8A3nUQioVKpV65cKSoq8ng8+IkOiURCp9OBksDlaYDCbrd7zY1RRETE2bNnBQKBXC5fXV11Op3Z2dl/+9vf/v3f/z0hIQH7qxgMBi6Xa7VaRSJRSkrK3bt3ORwOvkD8FIpYLCaTyaurqw8ePEhKSnI6nV9//fXU1FRUVBS2VrG4uIjvP3Cy6hVxUo8giEKhWHMWGhsbW1BQIJPJMCceeEihvLcIeDyeiYkJpVJZU1NDp9OTk5MTExOpVGp5eXlnZ+eac+lnjnX2Vh9YGkRgXxF4tUjRZDKtnYAE9js0Gg1GfnhSxPu/DVgYBz1hNBpLSkrYbHZoaGh+fj7+pBHYaMDlcq9cuZKYmGiz2ZRKZVNTE9jSLZPJ6urqAroTT4p37twB2wrWBqDXrl0zmUxff/11VlZWaWkplgsjeBADZl9fQSf14+Pjjx49AsOUrZx4YKA9vzA+Po7f8bFNgV6vVygU0tYDlUplMpnBu1fdptgDu+X1eqenp7FzESQSKS4ujkKhCIXCtra20dFRaGvmwPoCVvRCEHi1SFGlUpWXl4PlDQRB7t+/D0AXiURKpdLv94NBWFlZGTBhtSkpgiwmk+nu3bv4GRuPxwOGd/iOrK+vb2xsBMWqVKri4mL8XTB9ii0OY4TndDq//fZbg8Hw3//933fv3r18+TI2f4KlAeVAJ/VLS0vDw8O1tbXbO/Hwer1xcXEB4Ad/GSQpikQiHo8XYDFfpVLRaLSNa07B175/KcG5CIFAUF9fz+FwwLmI3NxcPp/f0tIyNDT0Kq9j7R/ssOTDjMArQYpCoRAY11CpVOfOnWtvb4+KikpISHjrrbeA4+y2trbi4uKBgQEwtymXy8Hi36akuLYUERUVFRYWduTIkdTUVOzDGewkGhkZwW91q6mp+frrrxUKRXR0dERExPvvvx9w3gtvayo1NbW1tRVF0ampqZs3b87Pz3/99dcIglRWVmJsGkCKgFahk3rwH3M4HBqNRigUbnTiYbPZPvjgg3v37mH9taO/ZTCkCAwwBTAidkmn0/GfUDuqfQ8Tz83NabXaxsZGHo+XlZUVFRWVnZ1NJpPBuQjs4Pke1giLggj8shA4OFJ0u91CoVAsFkul0kePHjU3N7e3tyuVysePH2u1Wp1OZzAYpqamZmZm5ufn7Xb70tKS1+vF9rDsCawIgly/fn1gYCA+Pn7NPnJsbOyDBw9mZmacTueFCxf++Mc/YgdvQXWbkqJOp7t//75Wq42IiBgeHo6JiQFGoVJTUzs6OkwmU2hoKIfDKSkpMRqNKpUqJSVFoVAQicSEhAQKhcJgMLZ6Oc7Nza0tIn733Xdnzpx5/PgxWFNEEAQcpQIGtwJIETqp3+rBmJubC3DiwWAwfvvb34aFhe3iKOQzSbF9PWAUuKlAo9G20naf4jc9F8HhcOrq6jQaTTDnIvZJMVgsRODQInBwpOhwOHp6ejo6OlpaWhobG2UyWXV1dUVFBZ/P53K5paWlNBotPz8/JycnIyMjJSUlMTExNjY2Ojo6JiYmISGBSCSSyeSsrKyCggIqlcpgMNhs9sOHDwHRCoVCcAYTEK1arcaIdnJycnZ2FhCt0+kEpqecTuemx2OxflpdXV3bmxobG8tgMLBITDCbzTKZDJvSDLAjDNYswe4DzAe9zWZ7ThNNKpUqfj2AUS9QBjqpxzplG8FkMrW0tCQmJh4/fvy111776KOPKioqtkm/8dYzSZFGo21KhPjIvr6+np6ejYXvVYzD4ejq6mpraxMKheBcRGpqKpPJBOci1s6wb9xsuVdVw3IgAi8NArsnxaqqqoNZJvF6vW632+FwrBlgnJ2dXdt+Mj4+Pjo6Ojg4qNFoenp6Ojs7a2trAdHW1NRUVlYKBAJAtMXFxYWFhbm5uRkZGampqUlJSXFxcYBo4+Pjk5OT09PTs7Oz8/PzAdFyOJwHDx4IhcKqqiqpVNrQ0NDc3KxQKJRKpVqtHhgYGB4eNhgMk5OTCILMzc3Z7Xan07mysvLMk8gvzRPzS2xIT0/P9evX33rrrTfffPPDDz/87LPPAiyBPbNR25PizMxMa2srnv+2kjf9xnpm7ZsmWJtIGB8f7+zsxJ+LIJFI1dXVL+RcxKZKwkiIwC8OgV2Sol6vr66u/mVtq8P3zerqqsfjWVxcHBsbM5vN09PTRqMREG1fX59Kperq6mptbW1qaqqrq6utrQVEW1ZWxmKx6HQ6INrMzEwSiZSQkBAXF0cgEGJiYu7fv08kEtPS0rKysvLy8qhUKtinyuPxysvLq6qqJBJJfX29XC5XKBTd3d29vb3A51xTU9PExMTMzIzFYrHZbGvO8JaXlwOOXuD1h/KOEFj7aomJiVEoFHq9ftdrikNDQ54tglQq3YoFA+KxteEd6Y+iaMC5CDAbT6VSRSJRZ2enwWCA5yJ2CilMDxHYFIHdkOLk5KRSqfT5fAMDAzqdbtNyX8FIn88HiPbJkycWiwUQrV6vHxoa6u/vB0Tb1tYml8sB0YpEovLych6Px2KxyGRyUVFRXl4eINrk5OT79+/HrIf79+8nJyeTSCRAtEVFRXQ6nc1mA6IViUS1tbWAaGtra7u6ujCi1ev1RqMREO2TJ08WFxch0e76sRwfHxcIBIotQmFhYQD5bXW5i5FiaWkpiUQCRzOxcxEBhql23S6YESIAEQhAYMekaDabW1tbMesqKpVqF9sWApSAl1sh4PP5lpeXnU4nINqZmZmJiYmxsTFAtL29vd3d3YBo6+vruVwuRrRsNrukpAQQbVZWVlpaGpFIBERLIBDi1n3AkkikzMzM3NzcwsJCOp3OYrHKysoEAgGZTK6pqamrq2tqamptbe3s7AT26QcHB0dHR4EVeLPZbLVagWu6PbHgtRUCexUvk8mep6jtp0/b2tosFstWRIiP38VIEZ6LeJ6Og3khAjtFYGekaLfbGxsbA3yVtbe3Q8PNO8X9BaZ/+vTpysoK2HM0NzeHIMjk5OTY2Njw8PDAwIBarS4tLVUoFM3NzQ0NDVKpVCwWC4XCBw8ecDgcBoNRVFSUn5+flZVFJpOJRGJ8fHxMTEx0dHRsbGxSUlJqampGRkZycjKFQikuLi4tLeVyuXw+v7KysqamRiaTNTY2AqLt6enRaDQNDQ2jo6Pj4+Mmk2l2dtZqtTocDrfbvbdbQmw229mzZ//85z+3t7fvDvntSXFpaamqqgpPflvJAfaMdqcMzAURgAjsHwI7IEWPx6NQKAJsp6Ioarfbm5qa4CHf/eukw1+y3+/3er0ul8tut8/Pz2u12snJSYPBoNPptFqtWq1WKpXt7e0tLS0BRJuens5gMKhUakFBAUa0CQkJGNEmJiampKSQSKScnBwKhUKj0ZhMJiDaioqK6upqQLQtLS0dHR18Pl+j0Wi12pGREYPBAIh2YWHBbrcbjcYvvvjijTfe+Oqrr9ra2nZ61Gd7UkRRtLi4eCsixOKlUunk5OTh702oIUTgVUYgWFL0+/1gS9umYFkslpaWlq2O322aBUZCBLZHABDt0tKS3W4fGRmZnZ2dmpoaHx8HRPv48WNAtM3NzY8ePZJKpdXV1ZmZmQ8fPuRwOEwmk0ajFRQUZGdnp6engxM+33333bvvvvvaa6/99re/DbDbvr0mKIo+kxRNJtODBw8w/ttUYLPZz6wIJoAIQAReLALBkmJ/f3+AKZYAvU0mU3d39y9ieSlAc3j5KiCg1WpPnDjx9ttvh4aGymSyjRMe24PwTFJEUbS5ubm8vHxTOrRYLLtYTdxeJXgXIgAR2A8EgiLFkZGR/v7+Z1Y/Nja20S/oM3PBBBCB/UZgdnYWWJEN5jHeVJlgSBFF0ZGRESqV2tnZiVEjgiAcDofP529aLIyECEAEDhsCzyZFh8OhVCqDPJyu1WotFsthayTUByKg0WieBwTzegiyhLGxsYqKCnBsRi6XB5kLJoMIQAQOAwLPJkUURVdWVg6DrlAHiABEACIAEYAI7CsCQZHivmoAC4cIQAQgAhABiMAhQeB5SdHpdAIv8671MDY2BvfaHJKuhWpABCACEAGIwE4R+Bkput1uiUQi+N/Q3t7+zONcmM96CoVSUFBQXFwMPBztVA+YHiJwkAgATyYIggDXJVKpFNsjJpFIwsLCSCSSWq3+37+CYHp6Gqjn9XqNRqPf7x8eHuZyuRuXKr1eL96NyU4b5ff7Z2ZmfD6fyWTi8/kdHR07LQGmhwhABJ4HgZ+RIvamQBBEo9HcunVrG1I0Go0lJSWhoaEpKSkCgQAI5eXlYOD4PDrBvBCB/UbA5/PJZLLS0lKZTHbq1KkjR46cP3/+zJkz3d3dcrlcIBBIJJKWlhYajdbY2CheD0Cl1tbW+Ph48AdhsVgBDji9Xm9SUlJ+fr7f79fpdJ9++ulJXPj973+vVqs9Hg+JRArDhbt372I8qtVqr169OjU1ZTAYCgoKhoeH9xsKWD5EACKAR+BnpIi/AbzjgpjGxkbskxkIjY2NXq/XbDYTiUSZTIYgCBDAd7fBYODxePgsFRUV0Io/Hl4ov3AERCKRUqm0Wq3An8n9+/dbW1vn5+eHhoYEAoFcLrfZbN98801ERERNTY1KpUJRdGJiIiQkBDzb169fz83NxbfCZDKFhIRUV1cHfEr29fVZrdbu7u47d+54vV6n0xkdHY3/O2COo+12e2hoaGlpqUAgiI2NvXfvHr58KEMEIAIHgMCWpCiRSKhUKtDAZrMhPw/Yhy02fZqXl4dNJXk8np8nR7b36HsA7YRVQATwCPj9/tu3b58+ffrzzz9/++23ZTJZeHg4eEoRBAEG0BMTE2UymUAguHjxoslkMhqNX331lUwm0+l0Xq83IiICmML3+/2Dg4Pff//9+fPnIyIi8LUAOSUlpaCg4McffwSuLbYiRavVGhoa2t3dDXxWJycnw7nTjWDCGIjAfiPwT1L0+/0LCwsYmSUmJvJ4vGeSmcPhcLlcTqfz5s2b0J3NfvcWLH+vENDr9X/4wx96e3tZLNbVq1cvXbp0/PhxJpO5srICSFGn0/l8vu7u7oiIiLm5ORRFjUbj/Pz82n6yW7duff755zk5OUAZhUJBJpPBf4dAIARo6Pf77969i7eYvxUpWtYDyK5Wq2/fvg33rAWACS8hAgeAwD9JceNSR1hYGH61YyttFhYWLl++XFlZuVUCGA8ROGwIuN3ugoKC3t5eLpd75cqV06dPHzlyhEQieTweGo1GpVIjIyMLCgri4uKsViuDwdBqtVgTGhoaTp06deHCBby7GBRFEQTZSIpGozEqKgpPb1uRIla+Xq8/e/ZswGoldhcKEAGIwL4i8E9S3HU1Wq0WuhreNXow44tCoKCg4Pr16zKZLDIyEkyfIgiCkWJoaGh0dHROTg6CIMnJyXl5eSiKLiws/PTTT5GRkW63G89zoAkmkykqKgrfnM7OznPnzgXQm9Pp/OKLL0JCQsBWm9DQ0BMnToChpMvlKi4uPnfu3E5Ns+IrhTJEACLwPAjsASk+T/UwL0TgRSGwtLTk8/lQFOXz+SMjI2DhAPhHGxkZmZ+fX11d5fF4YWFhcrnctx4aGhq2+f5bW2gMWEFYWVnZkWNIrVbb1dUFtHpRsMB6IQKvOAKQFF/xBwA2HyIAEYAIQAT+iQAkxX9iASWIAEQAIgAReMURgKT4ij8AsPkQAYgARAAi8E8EICn+EwsoQQQgAhABiMArjsD/AyWXKEIC1SH+AAAAAElFTkSuQmCC;" parent="1" vertex="1">
                    <mxGeometry x="70" y="30" width="604" height="76" as="geometry"/>
                </mxCell>
                <mxCell id="Hv4fnxaPhoupZEU2Rj9M-2" value="ユーザー&lt;div&gt;&lt;br&gt;&lt;/div&gt;" style="shape=umlActor;verticalLabelPosition=bottom;verticalAlign=top;html=1;" parent="1" vertex="1">
                    <mxGeometry y="345" width="30" height="60" as="geometry"/>
                </mxCell>
                <mxCell id="Hv4fnxaPhoupZEU2Rj9M-4" value="ログアウト画面" style="shape=umlBoundary;whiteSpace=wrap;html=1;fillColor=#f8cecc;strokeColor=#b85450;" parent="1" vertex="1">
                    <mxGeometry x="190" y="210" width="70" height="60" as="geometry"/>
                </mxCell>
                <mxCell id="Hv4fnxaPhoupZEU2Rj9M-5" value="ログアウト処理" style="ellipse;shape=umlControl;whiteSpace=wrap;html=1;fillColor=#fff2cc;strokeColor=#d6b656;" parent="1" vertex="1">
                    <mxGeometry x="390" y="260" width="70" height="70" as="geometry"/>
                </mxCell>
                <mxCell id="Hv4fnxaPhoupZEU2Rj9M-6" value="" style="endArrow=classic;html=1;rounded=0;entryX=1.01;entryY=0.517;entryDx=0;entryDy=0;entryPerimeter=0;" parent="1" target="Hv4fnxaPhoupZEU2Rj9M-4" edge="1">
                    <mxGeometry width="50" height="50" relative="1" as="geometry">
                        <mxPoint x="390" y="290" as="sourcePoint"/>
                        <mxPoint x="430" y="240" as="targetPoint"/>
                    </mxGeometry>
                </mxCell>
                <mxCell id="Hv4fnxaPhoupZEU2Rj9M-7" value="確認ダイアログ" style="shape=umlBoundary;whiteSpace=wrap;html=1;fillColor=#f8cecc;strokeColor=#b85450;" parent="1" vertex="1">
                    <mxGeometry x="200" y="440" width="80" height="50" as="geometry"/>
                </mxCell>
                <mxCell id="Hv4fnxaPhoupZEU2Rj9M-9" value="" style="endArrow=classic;html=1;rounded=0;exitX=0.793;exitY=0.152;exitDx=0;exitDy=0;exitPerimeter=0;" parent="1" edge="1" source="24">
                    <mxGeometry width="50" height="50" relative="1" as="geometry">
                        <mxPoint x="150" y="298.51" as="sourcePoint"/>
                        <mxPoint x="208" y="260" as="targetPoint"/>
                    </mxGeometry>
                </mxCell>
                <mxCell id="Hv4fnxaPhoupZEU2Rj9M-10" value="「「いいえ」選択" style="text;html=1;align=center;verticalAlign=middle;whiteSpace=wrap;rounded=0;" parent="1" vertex="1">
                    <mxGeometry x="110" y="460" width="90" height="30" as="geometry"/>
                </mxCell>
                <mxCell id="Hv4fnxaPhoupZEU2Rj9M-12" value="ログアウト選択" style="text;html=1;align=center;verticalAlign=middle;whiteSpace=wrap;rounded=0;" parent="1" vertex="1">
                    <mxGeometry x="30" y="380" width="50" height="35" as="geometry"/>
                </mxCell>
                <mxCell id="Hv4fnxaPhoupZEU2Rj9M-13" value="" style="endArrow=classic;html=1;rounded=0;entryX=0.333;entryY=0.995;entryDx=0;entryDy=0;entryPerimeter=0;exitX=0.95;exitY=0.22;exitDx=0;exitDy=0;exitPerimeter=0;" parent="1" target="Hv4fnxaPhoupZEU2Rj9M-5" edge="1" source="Hv4fnxaPhoupZEU2Rj9M-7">
                    <mxGeometry width="50" height="50" relative="1" as="geometry">
                        <mxPoint x="310" y="390" as="sourcePoint"/>
                        <mxPoint x="360" y="340" as="targetPoint"/>
                    </mxGeometry>
                </mxCell>
                <mxCell id="Hv4fnxaPhoupZEU2Rj9M-17" value="ログイン画面" style="shape=umlBoundary;whiteSpace=wrap;html=1;fillColor=#f8cecc;strokeColor=#b85450;" parent="1" vertex="1">
                    <mxGeometry x="540" y="345" width="90" height="60" as="geometry"/>
                </mxCell>
                <mxCell id="Hv4fnxaPhoupZEU2Rj9M-18" value="訪問者システム" style="ellipse;shape=umlEntity;whiteSpace=wrap;html=1;fillColor=#d5e8d4;strokeColor=#82b366;" parent="1" vertex="1">
                    <mxGeometry x="530" y="230" width="70" height="60" as="geometry"/>
                </mxCell>
                <mxCell id="Hv4fnxaPhoupZEU2Rj9M-19" value="" style="endArrow=classic;html=1;rounded=0;entryX=0;entryY=0.5;entryDx=0;entryDy=0;" parent="1" target="Hv4fnxaPhoupZEU2Rj9M-18" edge="1">
                    <mxGeometry width="50" height="50" relative="1" as="geometry">
                        <mxPoint x="460" y="290" as="sourcePoint"/>
                        <mxPoint x="510" y="240" as="targetPoint"/>
                    </mxGeometry>
                </mxCell>
                <mxCell id="Hv4fnxaPhoupZEU2Rj9M-20" value="" style="endArrow=classic;html=1;rounded=0;entryX=-0.022;entryY=0.522;entryDx=0;entryDy=0;entryPerimeter=0;" parent="1" target="Hv4fnxaPhoupZEU2Rj9M-17" edge="1">
                    <mxGeometry width="50" height="50" relative="1" as="geometry">
                        <mxPoint x="460" y="320" as="sourcePoint"/>
                        <mxPoint x="510" y="270" as="targetPoint"/>
                    </mxGeometry>
                </mxCell>
                <mxCell id="Hv4fnxaPhoupZEU2Rj9M-21" value="認証情報削除" style="text;html=1;align=center;verticalAlign=middle;whiteSpace=wrap;rounded=0;" parent="1" vertex="1">
                    <mxGeometry x="450" y="250" width="60" height="30" as="geometry"/>
                </mxCell>
                <mxCell id="Hv4fnxaPhoupZEU2Rj9M-22" value="ログイン画面表示" style="text;html=1;align=center;verticalAlign=middle;whiteSpace=wrap;rounded=0;" parent="1" vertex="1">
                    <mxGeometry x="450" y="350" width="60" height="30" as="geometry"/>
                </mxCell>
                <mxCell id="5" value="確認ダイアログ表示" style="ellipse;shape=umlControl;whiteSpace=wrap;html=1;fillColor=#fff2cc;strokeColor=#d6b656;" vertex="1" parent="1">
                    <mxGeometry x="210" y="320" width="70" height="70" as="geometry"/>
                </mxCell>
                <mxCell id="6" value="" style="endArrow=classic;html=1;rounded=0;entryX=0.448;entryY=0.062;entryDx=0;entryDy=0;entryPerimeter=0;exitX=0.638;exitY=0.994;exitDx=0;exitDy=0;exitPerimeter=0;" edge="1" parent="1" source="Hv4fnxaPhoupZEU2Rj9M-4" target="5">
                    <mxGeometry width="50" height="50" relative="1" as="geometry">
                        <mxPoint x="289.5" y="350" as="sourcePoint"/>
                        <mxPoint x="160.5" y="301" as="targetPoint"/>
                    </mxGeometry>
                </mxCell>
                <mxCell id="8" value="" style="endArrow=classic;html=1;rounded=0;entryX=0.608;entryY=-0.06;entryDx=0;entryDy=0;entryPerimeter=0;exitX=0.543;exitY=1.052;exitDx=0;exitDy=0;exitPerimeter=0;" edge="1" parent="1" source="5" target="Hv4fnxaPhoupZEU2Rj9M-7">
                    <mxGeometry width="50" height="50" relative="1" as="geometry">
                        <mxPoint x="390" y="350" as="sourcePoint"/>
                        <mxPoint x="261" y="301" as="targetPoint"/>
                    </mxGeometry>
                </mxCell>
                <mxCell id="9" value="ダイアログで「はい」の場合" style="text;html=1;align=center;verticalAlign=middle;whiteSpace=wrap;rounded=0;" vertex="1" parent="1">
                    <mxGeometry x="347" y="400" width="80" height="30" as="geometry"/>
                </mxCell>
                <mxCell id="14" value="メニュー画面" style="shape=umlBoundary;whiteSpace=wrap;html=1;fillColor=#f8cecc;strokeColor=#b85450;" vertex="1" parent="1">
                    <mxGeometry x="50" y="310" width="70" height="60" as="geometry"/>
                </mxCell>
                <mxCell id="15" value="" style="endArrow=classic;html=1;entryX=0.31;entryY=0.794;entryDx=0;entryDy=0;entryPerimeter=0;" edge="1" parent="1" target="14">
                    <mxGeometry width="50" height="50" relative="1" as="geometry">
                        <mxPoint x="30" y="380" as="sourcePoint"/>
                        <mxPoint x="60" y="350" as="targetPoint"/>
                    </mxGeometry>
                </mxCell>
                <mxCell id="17" value="確認ダイアログ処理" style="ellipse;shape=umlControl;whiteSpace=wrap;html=1;fillColor=#FFFFCC;" vertex="1" parent="1">
                    <mxGeometry x="90" y="400" width="60" height="50" as="geometry"/>
                </mxCell>
                <mxCell id="18" value="" style="endArrow=classic;html=1;entryX=0.917;entryY=0.753;entryDx=0;entryDy=0;entryPerimeter=0;" edge="1" parent="1" target="17">
                    <mxGeometry width="50" height="50" relative="1" as="geometry">
                        <mxPoint x="200" y="460" as="sourcePoint"/>
                        <mxPoint x="250" y="410" as="targetPoint"/>
                    </mxGeometry>
                </mxCell>
                <mxCell id="19" value="" style="endArrow=classic;html=1;entryX=0.614;entryY=1.017;entryDx=0;entryDy=0;entryPerimeter=0;" edge="1" parent="1" target="14">
                    <mxGeometry width="50" height="50" relative="1" as="geometry">
                        <mxPoint x="100" y="410" as="sourcePoint"/>
                        <mxPoint x="150" y="360" as="targetPoint"/>
                    </mxGeometry>
                </mxCell>
                <mxCell id="24" value="ログアウト選択表示" style="ellipse;shape=umlControl;whiteSpace=wrap;html=1;fillColor=#fff2cc;strokeColor=#d6b656;" vertex="1" parent="1">
                    <mxGeometry x="140" y="280" width="50" height="55" as="geometry"/>
                </mxCell>
                <mxCell id="26" value="" style="endArrow=classic;html=1;entryX=0.033;entryY=0.782;entryDx=0;entryDy=0;entryPerimeter=0;" edge="1" parent="1" target="24">
                    <mxGeometry width="50" height="50" relative="1" as="geometry">
                        <mxPoint x="120" y="332.5" as="sourcePoint"/>
                        <mxPoint x="170" y="282.5" as="targetPoint"/>
                    </mxGeometry>
                </mxCell>
            </root>
        </mxGraphModel>
    </diagram>
</mxfile>